<svg xmlns="http://www.w3.org/2000/svg" width="720" height="440" viewBox="0 0 720 440" role="img" aria-label="Klein graphing calculator export"><rect width="100%" height="100%" fill="#ffffff"/><g stroke="#e6e9ef" stroke-width="1"><line x1="0.00" y1="0" x2="0.00" y2="440"/><line x1="72.00" y1="0" x2="72.00" y2="440"/><line x1="144.00" y1="0" x2="144.00" y2="440"/><line x1="216.00" y1="0" x2="216.00" y2="440"/><line x1="288.00" y1="0" x2="288.00" y2="440"/><line x1="360.00" y1="0" x2="360.00" y2="440"/><line x1="432.00" y1="0" x2="432.00" y2="440"/><line x1="504.00" y1="0" x2="504.00" y2="440"/><line x1="576.00" y1="0" x2="576.00" y2="440"/><line x1="648.00" y1="0" x2="648.00" y2="440"/><line x1="720.00" y1="0" x2="720.00" y2="440"/><line x1="0" y1="440.00" x2="720" y2="440.00"/><line x1="0" y1="396.00" x2="720" y2="396.00"/><line x1="0" y1="352.00" x2="720" y2="352.00"/><line x1="0" y1="308.00" x2="720" y2="308.00"/><line x1="0" y1="264.00" x2="720" y2="264.00"/><line x1="0" y1="220.00" x2="720" y2="220.00"/><line x1="0" y1="176.00" x2="720" y2="176.00"/><line x1="0" y1="132.00" x2="720" y2="132.00"/><line x1="0" y1="88.00" x2="720" y2="88.00"/><line x1="0" y1="44.00" x2="720" y2="44.00"/><line x1="0" y1="0.00" x2="720" y2="0.00"/></g><g stroke="#6b7280" stroke-width="1.5"><line x1="0" y1="220.00" x2="720" y2="220.00"/><line x1="360.00" y1="0" x2="360.00" y2="440"/></g><polyline points="0.00,-1892.00 3.00,-1855.49 6.00,-1819.28 9.00,-1783.38 12.00,-1747.78 15.00,-1712.49 18.00,-1677.50 21.00,-1642.82 24.00,-1608.44 27.00,-1574.38 30.00,-1540.61 33.00,-1507.15 36.00,-1474.00 39.00,-1441.15 42.00,-1408.61 45.00,-1376.38 48.00,-1344.44 51.00,-1312.82 54.00,-1281.50 57.00,-1250.49 60.00,-1219.78 63.00,-1189.38 66.00,-1159.28 69.00,-1129.49 72.00,-1100.00 75.00,-1070.82 78.00,-1041.94 81.00,-1013.38 84.00,-985.11 87.00,-957.15 90.00,-929.50 93.00,-902.15 96.00,-875.11 99.00,-848.38 102.00,-821.94 105.00,-795.82 108.00,-770.00 111.00,-744.49 114.00,-719.28 117.00,-694.38 120.00,-669.78 123.00,-645.49 126.00,-621.50 129.00,-597.82 132.00,-574.44 135.00,-551.37 138.00,-528.61 141.00,-506.15 144.00,-484.00 147.00,-462.15 150.00,-440.61 153.00,-419.38 156.00,-398.44 159.00,-377.82 162.00,-357.50 165.00,-337.49 168.00,-317.78 171.00,-298.38 174.00,-279.28 177.00,-260.49 180.00,-242.00 183.00,-223.82 186.00,-205.94 189.00,-188.38 192.00,-171.11 195.00,-154.15 198.00,-137.50 201.00,-121.15 204.00,-105.11 207.00,-89.38 210.00,-73.94 213.00,-58.82 216.00,-44.00 219.00,-29.49 222.00,-15.28 225.00,-1.38 228.00,12.22 231.00,25.51 234.00,38.50 237.00,51.18 240.00,63.56 243.00,75.63 246.00,87.39 249.00,98.85 252.00,110.00 255.00,120.85 258.00,131.39 261.00,141.63 264.00,151.56 267.00,161.18 270.00,170.50 273.00,179.51 276.00,188.22 279.00,196.63 282.00,204.72 285.00,212.51 288.00,220.00 291.00,227.18 294.00,234.06 297.00,240.63 300.00,246.89 303.00,252.85 306.00,258.50 309.00,263.85 312.00,268.89 315.00,273.63 318.00,278.06 321.00,282.18 324.00,286.00 327.00,289.51 330.00,292.72 333.00,295.63 336.00,298.22 339.00,300.51 342.00,302.50 345.00,304.18 348.00,305.56 351.00,306.63 354.00,307.39 357.00,307.85 360.00,308.00 363.00,307.85 366.00,307.39 369.00,306.63 372.00,305.56 375.00,304.18 378.00,302.50 381.00,300.51 384.00,298.22 387.00,295.63 390.00,292.72 393.00,289.51 396.00,286.00 399.00,282.18 402.00,278.06 405.00,273.63 408.00,268.89 411.00,263.85 414.00,258.50 417.00,252.85 420.00,246.89 423.00,240.63 426.00,234.06 429.00,227.18 432.00,220.00 435.00,212.51 438.00,204.72 441.00,196.63 444.00,188.22 447.00,179.51 450.00,170.50 453.00,161.18 456.00,151.56 459.00,141.63 462.00,131.39 465.00,120.85 468.00,110.00 471.00,98.85 474.00,87.39 477.00,75.63 480.00,63.56 483.00,51.18 486.00,38.50 489.00,25.51 492.00,12.22 495.00,-1.38 498.00,-15.28 501.00,-29.49 504.00,-44.00 507.00,-58.82 510.00,-73.94 513.00,-89.38 516.00,-105.11 519.00,-121.15 522.00,-137.50 525.00,-154.15 528.00,-171.11 531.00,-188.38 534.00,-205.94 537.00,-223.82 540.00,-242.00 543.00,-260.49 546.00,-279.28 549.00,-298.38 552.00,-317.78 555.00,-337.49 558.00,-357.50 561.00,-377.82 564.00,-398.44 567.00,-419.38 570.00,-440.61 573.00,-462.15 576.00,-484.00 579.00,-506.15 582.00,-528.61 585.00,-551.37 588.00,-574.44 591.00,-597.82 594.00,-621.50 597.00,-645.49 600.00,-669.78 603.00,-694.38 606.00,-719.28 609.00,-744.49 612.00,-770.00 615.00,-795.82 618.00,-821.94 621.00,-848.38 624.00,-875.11 627.00,-902.15 630.00,-929.50 633.00,-957.15 636.00,-985.11 639.00,-1013.38 642.00,-1041.94 645.00,-1070.82 648.00,-1100.00 651.00,-1129.49 654.00,-1159.28 657.00,-1189.38 660.00,-1219.78 663.00,-1250.49 666.00,-1281.50 669.00,-1312.82 672.00,-1344.44 675.00,-1376.38 678.00,-1408.61 681.00,-1441.15 684.00,-1474.00 687.00,-1507.15 690.00,-1540.61 693.00,-1574.38 696.00,-1608.44 699.00,-1642.82 702.00,-1677.50 705.00,-1712.49 708.00,-1747.78 711.00,-1783.38 714.00,-1819.28 717.00,-1855.49 720.00,-1892.00" fill="none" stroke="#2563eb" stroke-width="2.25" stroke-linecap="round" stroke-linejoin="round"/><polyline points="0.00,196.06 3.00,199.22 6.00,202.52 9.00,205.94 12.00,209.46 15.00,213.05 18.00,216.69 21.00,220.36 24.00,224.02 27.00,227.65 30.00,231.23 33.00,234.73 36.00,238.13 39.00,241.41 42.00,244.53 45.00,247.49 48.00,250.25 51.00,252.81 54.00,255.13 57.00,257.22 60.00,259.04 63.00,260.59 66.00,261.87 69.00,262.85 72.00,263.53 75.00,263.91 78.00,263.99 81.00,263.76 84.00,263.23 87.00,262.40 90.00,261.27 93.00,259.86 96.00,258.17 99.00,256.22 102.00,254.01 105.00,251.57 108.00,248.91 111.00,246.05 114.00,243.00 117.00,239.80 120.00,236.46 123.00,233.01 126.00,229.47 129.00,225.86 132.00,222.21 135.00,218.54 138.00,214.88 141.00,211.26 144.00,207.71 147.00,204.23 150.00,200.87 153.00,197.64 156.00,194.56 159.00,191.66 162.00,188.96 165.00,186.47 168.00,184.21 171.00,182.21 174.00,180.46 177.00,178.99 180.00,177.81 183.00,176.91 186.00,176.32 189.00,176.03 192.00,176.05 195.00,176.37 198.00,176.99 201.00,177.91 204.00,179.12 207.00,180.62 210.00,182.39 213.00,184.42 216.00,186.70 219.00,189.21 222.00,191.93 225.00,194.85 228.00,197.94 231.00,201.19 234.00,204.57 237.00,208.05 240.00,211.62 243.00,215.24 246.00,218.90 249.00,222.56 252.00,226.21 255.00,229.81 258.00,233.35 261.00,236.79 264.00,240.12 267.00,243.31 270.00,246.33 273.00,249.18 276.00,251.82 279.00,254.24 282.00,256.42 285.00,258.35 288.00,260.01 291.00,261.39 294.00,262.49 297.00,263.30 300.00,263.80 303.00,264.00 306.00,263.89 309.00,263.48 312.00,262.77 315.00,261.76 318.00,260.46 321.00,258.88 324.00,257.02 327.00,254.92 330.00,252.57 333.00,249.99 336.00,247.21 339.00,244.24 342.00,241.09 345.00,237.81 348.00,234.40 351.00,230.89 354.00,227.30 357.00,223.66 360.00,220.00 363.00,216.34 366.00,212.70 369.00,209.11 372.00,205.60 375.00,202.19 378.00,198.91 381.00,195.76 384.00,192.79 387.00,190.01 390.00,187.43 393.00,185.08 396.00,182.98 399.00,181.12 402.00,179.54 405.00,178.24 408.00,177.23 411.00,176.52 414.00,176.11 417.00,176.00 420.00,176.20 423.00,176.70 426.00,177.51 429.00,178.61 432.00,179.99 435.00,181.65 438.00,183.58 441.00,185.76 444.00,188.18 447.00,190.82 450.00,193.67 453.00,196.69 456.00,199.88 459.00,203.21 462.00,206.65 465.00,210.19 468.00,213.79 471.00,217.44 474.00,221.10 477.00,224.76 480.00,228.38 483.00,231.95 486.00,235.43 489.00,238.81 492.00,242.06 495.00,245.15 498.00,248.07 501.00,250.79 504.00,253.30 507.00,255.58 510.00,257.61 513.00,259.38 516.00,260.88 519.00,262.09 522.00,263.01 525.00,263.63 528.00,263.95 531.00,263.97 534.00,263.68 537.00,263.09 540.00,262.19 543.00,261.01 546.00,259.54 549.00,257.79 552.00,255.79 555.00,253.53 558.00,251.04 561.00,248.34 564.00,245.44 567.00,242.36 570.00,239.13 573.00,235.77 576.00,232.29 579.00,228.74 582.00,225.12 585.00,221.46 588.00,217.79 591.00,214.14 594.00,210.53 597.00,206.99 600.00,203.54 603.00,200.20 606.00,197.00 609.00,193.95 612.00,191.09 615.00,188.43 618.00,185.99 621.00,183.78 624.00,181.83 627.00,180.14 630.00,178.73 633.00,177.60 636.00,176.77 639.00,176.24 642.00,176.01 645.00,176.09 648.00,176.47 651.00,177.15 654.00,178.13 657.00,179.41 660.00,180.96 663.00,182.78 666.00,184.87 669.00,187.19 672.00,189.75 675.00,192.51 678.00,195.47 681.00,198.59 684.00,201.87 687.00,205.27 690.00,208.77 693.00,212.35 696.00,215.98 699.00,219.64 702.00,223.31 705.00,226.95 708.00,230.54 711.00,234.06 714.00,237.48 717.00,240.78 720.00,243.94" fill="none" stroke="#d97706" stroke-width="2.25" stroke-linecap="round" stroke-linejoin="round"/><polyline points="0.00,418.00 3.00,416.17 6.00,414.33 9.00,412.50 12.00,410.67 15.00,408.83 18.00,407.00 21.00,405.17 24.00,403.33 27.00,401.50 30.00,399.67 33.00,397.83 36.00,396.00 39.00,394.17 42.00,392.33 45.00,390.50 48.00,388.67 51.00,386.83 54.00,385.00 57.00,383.17 60.00,381.33 63.00,379.50 66.00,377.67 69.00,375.83 72.00,374.00 75.00,372.17 78.00,370.33 81.00,368.50 84.00,366.67 87.00,364.83 90.00,363.00 93.00,361.17 96.00,359.33 99.00,357.50 102.00,355.67 105.00,353.83 108.00,352.00 111.00,350.17 114.00,348.33 117.00,346.50 120.00,344.67 123.00,342.83 126.00,341.00 129.00,339.17 132.00,337.33 135.00,335.50 138.00,333.67 141.00,331.83 144.00,330.00 147.00,328.17 150.00,326.33 153.00,324.50 156.00,322.67 159.00,320.83 162.00,319.00 165.00,317.17 168.00,315.33 171.00,313.50 174.00,311.67 177.00,309.83 180.00,308.00 183.00,306.17 186.00,304.33 189.00,302.50 192.00,300.67 195.00,298.83 198.00,297.00 201.00,295.17 204.00,293.33 207.00,291.50 210.00,289.67 213.00,287.83 216.00,286.00 219.00,284.17 222.00,282.33 225.00,280.50 228.00,278.67 231.00,276.83 234.00,275.00 237.00,273.17 240.00,271.33 243.00,269.50 246.00,267.67 249.00,265.83 252.00,264.00 255.00,262.17 258.00,260.33 261.00,258.50 264.00,256.67 267.00,254.83 270.00,253.00 273.00,251.17 276.00,249.33 279.00,247.50 282.00,245.67 285.00,243.83 288.00,242.00 291.00,240.17 294.00,238.33 297.00,236.50 300.00,234.67 303.00,232.83 306.00,231.00 309.00,229.17 312.00,227.33 315.00,225.50 318.00,223.67 321.00,221.83 324.00,220.00 327.00,218.17 330.00,216.33 333.00,214.50 336.00,212.67 339.00,210.83 342.00,209.00 345.00,207.17 348.00,205.33 351.00,203.50 354.00,201.67 357.00,199.83 360.00,198.00 363.00,196.17 366.00,194.33 369.00,192.50 372.00,190.67 375.00,188.83 378.00,187.00 381.00,185.17 384.00,183.33 387.00,181.50 390.00,179.67 393.00,177.83 396.00,176.00 399.00,174.17 402.00,172.33 405.00,170.50 408.00,168.67 411.00,166.83 414.00,165.00 417.00,163.17 420.00,161.33 423.00,159.50 426.00,157.67 429.00,155.83 432.00,154.00 435.00,152.17 438.00,150.33 441.00,148.50 444.00,146.67 447.00,144.83 450.00,143.00 453.00,141.17 456.00,139.33 459.00,137.50 462.00,135.67 465.00,133.83 468.00,132.00 471.00,130.17 474.00,128.33 477.00,126.50 480.00,124.67 483.00,122.83 486.00,121.00 489.00,119.17 492.00,117.33 495.00,115.50 498.00,113.67 501.00,111.83 504.00,110.00 507.00,108.17 510.00,106.33 513.00,104.50 516.00,102.67 519.00,100.83 522.00,99.00 525.00,97.17 528.00,95.33 531.00,93.50 534.00,91.67 537.00,89.83 540.00,88.00 543.00,86.17 546.00,84.33 549.00,82.50 552.00,80.67 555.00,78.83 558.00,77.00 561.00,75.17 564.00,73.33 567.00,71.50 570.00,69.67 573.00,67.83 576.00,66.00 579.00,64.17 582.00,62.33 585.00,60.50 588.00,58.67 591.00,56.83 594.00,55.00 597.00,53.17 600.00,51.33 603.00,49.50 606.00,47.67 609.00,45.83 612.00,44.00 615.00,42.17 618.00,40.33 621.00,38.50 624.00,36.67 627.00,34.83 630.00,33.00 633.00,31.17 636.00,29.33 639.00,27.50 642.00,25.67 645.00,23.83 648.00,22.00 651.00,20.17 654.00,18.33 657.00,16.50 660.00,14.67 663.00,12.83 666.00,11.00 669.00,9.17 672.00,7.33 675.00,5.50 678.00,3.67 681.00,1.83 684.00,0.00 687.00,-1.83 690.00,-3.67 693.00,-5.50 696.00,-7.33 699.00,-9.17 702.00,-11.00 705.00,-12.83 708.00,-14.67 711.00,-16.50 714.00,-18.33 717.00,-20.17 720.00,-22.00" fill="none" stroke="#16a34a" stroke-width="2.25" stroke-linecap="round" stroke-linejoin="round"/><circle cx="432.00" cy="220.00" r="4" fill="#172033"/><text x="439.00" y="213.00" fill="#172033" font-family="&#39;Proxima Nova&#39;, ui-sans-serif, system-ui, -apple-system, BlinkMacSystemFont, &#39;Segoe UI&#39;, sans-serif" font-size="12">A</text><circle cx="288.00" cy="220.00" r="4" fill="#172033"/><text x="295.00" y="213.00" fill="#172033" font-family="&#39;Proxima Nova&#39;, ui-sans-serif, system-ui, -apple-system, BlinkMacSystemFont, &#39;Segoe UI&#39;, sans-serif" font-size="12">B</text></svg>